<?xml version="1.0" encoding="UTF-8" standalone="no"?>
<!DOCTYPE svg PUBLIC "-//W3C//DTD SVG 1.1//EN" "http://www.w3.org/Graphics/SVG/1.1/DTD/svg11.dtd">
<svg width="100%" height="100%" viewBox="0 0 236 119" version="1.1" xmlns="http://www.w3.org/2000/svg" xmlns:xlink="http://www.w3.org/1999/xlink" xml:space="preserve" xmlns:serif="http://www.serif.com/" style="fill-rule:evenodd;clip-rule:evenodd;stroke-linejoin:round;stroke-miterlimit:2;">
    <g transform="matrix(0.310951,-0.054829,0.054829,0.310951,-43.5046,0.354303)">
        <g transform="matrix(295.595,0,0,295.595,120,368)">
            <path d="M0.08,-0.25C0.055,-0.264 0.036,-0.28 0.025,-0.299C0.014,-0.317 0.007,-0.335 0.004,-0.353C0.001,-0.371 0.002,-0.387 0.005,-0.402C0.008,-0.417 0.01,-0.427 0.013,-0.433C0.015,-0.437 0.021,-0.446 0.031,-0.46C0.04,-0.474 0.053,-0.491 0.069,-0.509C0.085,-0.529 0.103,-0.549 0.125,-0.57C0.146,-0.591 0.168,-0.61 0.192,-0.627C0.216,-0.644 0.241,-0.659 0.267,-0.671C0.293,-0.682 0.319,-0.688 0.344,-0.688C0.361,-0.688 0.376,-0.686 0.389,-0.681C0.416,-0.672 0.436,-0.655 0.448,-0.629C0.459,-0.605 0.466,-0.575 0.468,-0.541C0.469,-0.506 0.467,-0.469 0.461,-0.43C0.454,-0.39 0.447,-0.351 0.439,-0.313C0.43,-0.274 0.422,-0.238 0.414,-0.204C0.406,-0.17 0.401,-0.142 0.398,-0.12C0.409,-0.151 0.425,-0.186 0.448,-0.223C0.47,-0.26 0.496,-0.298 0.526,-0.338C0.555,-0.377 0.588,-0.417 0.623,-0.458C0.658,-0.499 0.693,-0.538 0.729,-0.576C0.765,-0.614 0.8,-0.65 0.835,-0.684C0.87,-0.717 0.902,-0.747 0.931,-0.773C0.96,-0.798 0.986,-0.819 1.007,-0.836C1.028,-0.852 1.044,-0.862 1.054,-0.865C1.063,-0.868 1.072,-0.87 1.082,-0.872C1.092,-0.874 1.103,-0.875 1.114,-0.875C1.133,-0.875 1.153,-0.87 1.173,-0.861C1.192,-0.852 1.21,-0.834 1.225,-0.808L1.217,-0.808C1.184,-0.808 1.147,-0.796 1.104,-0.773C1.061,-0.749 1.016,-0.717 0.968,-0.678C0.92,-0.639 0.871,-0.593 0.821,-0.542C0.77,-0.491 0.721,-0.438 0.674,-0.383C0.626,-0.328 0.581,-0.274 0.54,-0.22C0.498,-0.165 0.462,-0.115 0.431,-0.069C0.4,-0.023 0.375,0.017 0.358,0.05C0.341,0.084 0.333,0.108 0.334,0.121L0.312,0.121C0.304,0.121 0.295,0.121 0.285,0.12C0.276,0.119 0.266,0.118 0.257,0.115C0.247,0.113 0.238,0.11 0.23,0.105C0.221,0.1 0.214,0.094 0.209,0.087C0.204,0.078 0.202,0.061 0.204,0.037C0.207,0.013 0.212,-0.016 0.219,-0.049C0.226,-0.082 0.234,-0.119 0.244,-0.158C0.254,-0.197 0.265,-0.237 0.276,-0.276C0.286,-0.315 0.297,-0.354 0.308,-0.391C0.318,-0.428 0.327,-0.46 0.334,-0.489C0.341,-0.518 0.345,-0.541 0.347,-0.558C0.35,-0.575 0.349,-0.583 0.344,-0.582C0.338,-0.581 0.327,-0.576 0.312,-0.565C0.296,-0.554 0.278,-0.54 0.259,-0.523C0.239,-0.506 0.219,-0.486 0.198,-0.463C0.177,-0.44 0.157,-0.417 0.14,-0.393C0.123,-0.368 0.108,-0.344 0.097,-0.319C0.086,-0.294 0.08,-0.271 0.08,-0.25Z" style="fill:white;fill-rule:nonzero;"/>
        </g>
        <g transform="matrix(295.595,0,0,295.595,345.243,368)">
            <path d="M0.207,-0.429C0.205,-0.424 0.2,-0.416 0.191,-0.403C0.182,-0.39 0.172,-0.374 0.161,-0.356C0.149,-0.337 0.137,-0.317 0.125,-0.296C0.112,-0.274 0.101,-0.252 0.092,-0.231C0.082,-0.21 0.075,-0.19 0.07,-0.171C0.065,-0.152 0.065,-0.136 0.068,-0.123C0.072,-0.117 0.077,-0.113 0.084,-0.11C0.09,-0.107 0.097,-0.106 0.104,-0.106C0.12,-0.106 0.137,-0.111 0.154,-0.119C0.171,-0.129 0.187,-0.14 0.204,-0.153C0.221,-0.166 0.236,-0.181 0.251,-0.196C0.265,-0.211 0.277,-0.224 0.287,-0.236C0.288,-0.237 0.289,-0.239 0.29,-0.241C0.291,-0.242 0.292,-0.243 0.293,-0.242C0.298,-0.241 0.3,-0.238 0.3,-0.235C0.301,-0.23 0.301,-0.226 0.299,-0.221C0.297,-0.216 0.295,-0.212 0.293,-0.207C0.284,-0.188 0.271,-0.167 0.254,-0.145C0.236,-0.122 0.218,-0.101 0.197,-0.082C0.175,-0.063 0.153,-0.047 0.13,-0.034C0.107,-0.021 0.084,-0.014 0.063,-0.013C0.06,-0.013 0.054,-0.014 0.046,-0.017C0.038,-0.019 0.029,-0.022 0.021,-0.027C0.012,-0.032 0.003,-0.037 -0.005,-0.043C-0.014,-0.049 -0.02,-0.056 -0.024,-0.064C-0.034,-0.083 -0.037,-0.105 -0.032,-0.132C-0.027,-0.158 -0.019,-0.186 -0.007,-0.215C0.005,-0.244 0.019,-0.273 0.035,-0.303C0.052,-0.332 0.067,-0.36 0.082,-0.385C0.096,-0.41 0.108,-0.433 0.117,-0.452C0.126,-0.47 0.129,-0.484 0.126,-0.492C0.125,-0.492 0.126,-0.492 0.127,-0.493C0.128,-0.493 0.129,-0.493 0.13,-0.493C0.135,-0.493 0.143,-0.492 0.155,-0.49C0.166,-0.488 0.176,-0.485 0.186,-0.48C0.196,-0.475 0.203,-0.469 0.209,-0.461C0.214,-0.452 0.213,-0.442 0.207,-0.429ZM0.193,-0.532C0.183,-0.539 0.178,-0.551 0.178,-0.566C0.178,-0.581 0.183,-0.597 0.193,-0.612L0.194,-0.613C0.197,-0.618 0.2,-0.622 0.203,-0.625C0.205,-0.629 0.208,-0.633 0.21,-0.636C0.212,-0.64 0.213,-0.644 0.214,-0.649C0.214,-0.654 0.213,-0.659 0.211,-0.666C0.21,-0.669 0.213,-0.673 0.219,-0.676C0.225,-0.679 0.233,-0.68 0.242,-0.68C0.253,-0.68 0.265,-0.677 0.276,-0.67C0.287,-0.663 0.293,-0.649 0.293,-0.63C0.293,-0.621 0.291,-0.611 0.286,-0.599C0.282,-0.586 0.276,-0.575 0.269,-0.564C0.262,-0.553 0.253,-0.544 0.244,-0.537C0.235,-0.529 0.225,-0.525 0.215,-0.525C0.207,-0.525 0.2,-0.527 0.193,-0.532Z" style="fill:white;fill-rule:nonzero;"/>
        </g>
        <g transform="matrix(295.595,0,0,295.595,428.305,368)">
            <path d="M0.322,-0.014C0.313,-0.014 0.305,-0.016 0.296,-0.019C0.275,-0.023 0.259,-0.033 0.249,-0.048C0.238,-0.063 0.231,-0.078 0.227,-0.095C0.223,-0.114 0.222,-0.135 0.224,-0.158C0.203,-0.124 0.18,-0.094 0.157,-0.067C0.147,-0.056 0.137,-0.045 0.126,-0.034C0.115,-0.023 0.103,-0.013 0.092,-0.004C0.08,0.005 0.068,0.012 0.056,0.017C0.044,0.022 0.032,0.025 0.021,0.025C0.018,0.025 0.017,0.025 0.016,0.024C-0.005,0.022 -0.02,0.013 -0.029,-0.002C-0.038,-0.017 -0.043,-0.037 -0.043,-0.061C-0.043,-0.085 -0.039,-0.113 -0.03,-0.143C-0.022,-0.174 -0.011,-0.206 0.003,-0.239C0.017,-0.272 0.034,-0.304 0.053,-0.337C0.071,-0.37 0.092,-0.4 0.113,-0.428C0.136,-0.457 0.157,-0.479 0.177,-0.493C0.196,-0.506 0.218,-0.513 0.241,-0.513C0.251,-0.513 0.262,-0.512 0.273,-0.509C0.284,-0.506 0.295,-0.501 0.306,-0.494C0.316,-0.487 0.326,-0.477 0.335,-0.464C0.344,-0.451 0.351,-0.435 0.357,-0.414C0.409,-0.49 0.454,-0.559 0.492,-0.62C0.508,-0.646 0.523,-0.672 0.538,-0.697C0.553,-0.722 0.565,-0.744 0.575,-0.764C0.585,-0.784 0.592,-0.801 0.596,-0.814C0.599,-0.827 0.598,-0.834 0.593,-0.835C0.594,-0.839 0.598,-0.843 0.603,-0.847C0.608,-0.85 0.615,-0.854 0.622,-0.857C0.628,-0.86 0.636,-0.863 0.644,-0.865C0.652,-0.867 0.66,-0.868 0.668,-0.868C0.683,-0.868 0.694,-0.864 0.703,-0.855C0.712,-0.846 0.713,-0.831 0.707,-0.808C0.7,-0.783 0.688,-0.754 0.669,-0.721C0.65,-0.687 0.627,-0.65 0.602,-0.611C0.576,-0.572 0.549,-0.531 0.52,-0.488C0.491,-0.445 0.464,-0.403 0.438,-0.361C0.411,-0.318 0.388,-0.277 0.368,-0.237C0.347,-0.198 0.333,-0.161 0.324,-0.128C0.322,-0.121 0.323,-0.116 0.328,-0.112C0.333,-0.108 0.34,-0.106 0.35,-0.106C0.36,-0.106 0.372,-0.108 0.386,-0.113C0.4,-0.118 0.416,-0.125 0.434,-0.136C0.451,-0.147 0.47,-0.161 0.49,-0.178C0.51,-0.195 0.53,-0.217 0.551,-0.242C0.551,-0.243 0.552,-0.242 0.553,-0.241C0.56,-0.241 0.561,-0.235 0.558,-0.225C0.555,-0.214 0.548,-0.2 0.538,-0.183C0.528,-0.166 0.515,-0.148 0.499,-0.129C0.483,-0.11 0.465,-0.092 0.446,-0.075C0.427,-0.058 0.406,-0.043 0.385,-0.032C0.364,-0.021 0.343,-0.015 0.322,-0.014ZM0.336,-0.389C0.329,-0.404 0.321,-0.415 0.313,-0.422C0.304,-0.429 0.295,-0.432 0.286,-0.432C0.269,-0.432 0.251,-0.423 0.232,-0.405C0.212,-0.387 0.192,-0.365 0.173,-0.338C0.154,-0.311 0.135,-0.281 0.118,-0.249C0.101,-0.217 0.086,-0.187 0.075,-0.159C0.063,-0.131 0.055,-0.107 0.05,-0.087C0.045,-0.068 0.046,-0.057 0.052,-0.054C0.054,-0.053 0.057,-0.053 0.061,-0.053C0.069,-0.053 0.079,-0.057 0.09,-0.065C0.101,-0.073 0.114,-0.083 0.127,-0.096C0.14,-0.108 0.153,-0.122 0.167,-0.137C0.181,-0.152 0.195,-0.167 0.207,-0.182C0.221,-0.197 0.233,-0.21 0.244,-0.223C0.255,-0.236 0.265,-0.246 0.273,-0.253C0.283,-0.274 0.293,-0.295 0.304,-0.316C0.315,-0.337 0.326,-0.359 0.338,-0.381C0.338,-0.382 0.337,-0.385 0.336,-0.389Z" style="fill:white;fill-rule:nonzero;"/>
        </g>
        <g transform="matrix(295.595,0,0,295.595,590.291,368)">
            <path d="M-0.017,-0.047C-0.032,-0.071 -0.037,-0.1 -0.032,-0.133C-0.027,-0.166 -0.016,-0.201 0.003,-0.237C0.021,-0.273 0.044,-0.309 0.073,-0.344C0.101,-0.379 0.131,-0.411 0.162,-0.439C0.193,-0.466 0.224,-0.489 0.255,-0.506C0.285,-0.523 0.311,-0.532 0.334,-0.532C0.349,-0.532 0.362,-0.528 0.373,-0.519C0.389,-0.506 0.398,-0.489 0.399,-0.469C0.4,-0.449 0.396,-0.428 0.387,-0.406C0.378,-0.383 0.366,-0.361 0.348,-0.339C0.332,-0.317 0.313,-0.297 0.293,-0.279C0.272,-0.261 0.251,-0.247 0.229,-0.235C0.206,-0.225 0.185,-0.219 0.166,-0.219L0.156,-0.219C0.153,-0.219 0.149,-0.22 0.146,-0.221C0.143,-0.222 0.14,-0.224 0.139,-0.226C0.138,-0.228 0.136,-0.23 0.135,-0.232C0.125,-0.217 0.116,-0.203 0.108,-0.188C0.1,-0.173 0.094,-0.16 0.089,-0.147C0.084,-0.134 0.081,-0.123 0.08,-0.113C0.079,-0.103 0.08,-0.095 0.083,-0.089C0.088,-0.08 0.095,-0.075 0.103,-0.073C0.112,-0.071 0.121,-0.07 0.13,-0.07C0.161,-0.07 0.189,-0.075 0.215,-0.085C0.241,-0.094 0.265,-0.107 0.288,-0.123C0.311,-0.139 0.332,-0.157 0.353,-0.178C0.373,-0.199 0.392,-0.22 0.411,-0.242C0.412,-0.243 0.412,-0.242 0.413,-0.241C0.419,-0.241 0.421,-0.236 0.418,-0.226C0.415,-0.216 0.41,-0.203 0.401,-0.189C0.392,-0.173 0.381,-0.157 0.367,-0.139C0.352,-0.12 0.336,-0.103 0.319,-0.086C0.301,-0.069 0.282,-0.055 0.263,-0.042C0.243,-0.029 0.223,-0.02 0.203,-0.016C0.172,-0.003 0.14,0.003 0.107,0.003C0.084,0.003 0.061,-0 0.038,-0.007C0.015,-0.013 -0.004,-0.026 -0.017,-0.047ZM0.167,-0.28C0.168,-0.279 0.169,-0.278 0.17,-0.277C0.177,-0.278 0.186,-0.28 0.198,-0.284C0.209,-0.288 0.222,-0.294 0.235,-0.301C0.248,-0.308 0.262,-0.316 0.276,-0.325C0.289,-0.334 0.301,-0.343 0.311,-0.353C0.32,-0.363 0.327,-0.373 0.332,-0.384C0.337,-0.395 0.337,-0.405 0.333,-0.415C0.33,-0.42 0.326,-0.423 0.321,-0.423C0.314,-0.423 0.304,-0.419 0.293,-0.411C0.281,-0.403 0.268,-0.393 0.254,-0.38C0.24,-0.367 0.226,-0.351 0.211,-0.334C0.196,-0.317 0.181,-0.299 0.167,-0.28Z" style="fill:white;fill-rule:nonzero;"/>
        </g>
        <g transform="matrix(295.595,0,0,295.595,710.598,368)">
            <path d="M-0.019,-0.039C-0.036,-0.053 -0.044,-0.071 -0.045,-0.093C-0.046,-0.115 -0.043,-0.139 -0.035,-0.164C-0.027,-0.189 -0.016,-0.214 -0.001,-0.239C0.014,-0.265 0.028,-0.289 0.043,-0.31C0.038,-0.318 0.036,-0.326 0.036,-0.333C0.036,-0.34 0.037,-0.346 0.038,-0.353C0.038,-0.355 0.039,-0.357 0.04,-0.358C0.049,-0.379 0.062,-0.401 0.078,-0.422C0.094,-0.443 0.113,-0.461 0.134,-0.477C0.155,-0.494 0.177,-0.507 0.202,-0.518C0.226,-0.528 0.25,-0.533 0.275,-0.533C0.296,-0.533 0.316,-0.53 0.336,-0.523C0.356,-0.516 0.375,-0.506 0.394,-0.492C0.414,-0.477 0.424,-0.457 0.425,-0.432C0.426,-0.407 0.421,-0.381 0.409,-0.352C0.399,-0.323 0.384,-0.293 0.365,-0.263C0.345,-0.233 0.326,-0.205 0.306,-0.179C0.286,-0.153 0.268,-0.13 0.251,-0.111C0.234,-0.092 0.223,-0.079 0.216,-0.072C0.209,-0.065 0.201,-0.057 0.192,-0.049C0.182,-0.04 0.171,-0.032 0.16,-0.025C0.148,-0.018 0.135,-0.012 0.122,-0.007C0.108,-0.002 0.093,0.001 0.078,0.001C0.063,0.001 0.047,-0.002 0.031,-0.008C0.015,-0.013 -0.002,-0.024 -0.019,-0.039ZM0.207,-0.311C0.201,-0.311 0.193,-0.306 0.182,-0.297C0.171,-0.287 0.16,-0.275 0.149,-0.26C0.138,-0.245 0.127,-0.228 0.116,-0.21C0.105,-0.191 0.097,-0.173 0.091,-0.157C0.084,-0.14 0.081,-0.124 0.081,-0.111C0.08,-0.098 0.084,-0.088 0.093,-0.083C0.094,-0.082 0.096,-0.082 0.098,-0.081C0.099,-0.08 0.101,-0.08 0.102,-0.08C0.113,-0.08 0.129,-0.088 0.148,-0.105C0.167,-0.121 0.187,-0.141 0.208,-0.167C0.229,-0.192 0.25,-0.219 0.27,-0.249C0.29,-0.279 0.307,-0.308 0.321,-0.335C0.335,-0.362 0.344,-0.386 0.348,-0.407C0.353,-0.428 0.35,-0.442 0.339,-0.449C0.333,-0.453 0.327,-0.456 0.32,-0.458C0.313,-0.459 0.306,-0.46 0.299,-0.46C0.286,-0.46 0.273,-0.457 0.26,-0.452C0.247,-0.447 0.234,-0.441 0.224,-0.434C0.213,-0.427 0.203,-0.42 0.196,-0.413C0.188,-0.406 0.183,-0.402 0.181,-0.4C0.18,-0.397 0.179,-0.394 0.179,-0.392C0.178,-0.39 0.177,-0.388 0.176,-0.386C0.186,-0.381 0.195,-0.376 0.203,-0.37C0.211,-0.363 0.218,-0.357 0.224,-0.351C0.229,-0.345 0.234,-0.34 0.236,-0.336C0.239,-0.331 0.241,-0.328 0.242,-0.326C0.242,-0.321 0.239,-0.317 0.234,-0.316C0.23,-0.314 0.22,-0.312 0.207,-0.311Z" style="fill:white;fill-rule:nonzero;"/>
        </g>
    </g>
</svg>
