<?xml version="1.0" encoding="UTF-8" standalone="no"?>
<!DOCTYPE svg PUBLIC "-//W3C//DTD SVG 1.1//EN" "http://www.w3.org/Graphics/SVG/1.1/DTD/svg11.dtd">
<svg width="100%" height="100%" viewBox="0 0 270 158" version="1.1" xmlns="http://www.w3.org/2000/svg" xmlns:xlink="http://www.w3.org/1999/xlink" xml:space="preserve" xmlns:serif="http://www.serif.com/" style="fill-rule:evenodd;clip-rule:evenodd;stroke-linejoin:round;stroke-miterlimit:2;">
    <g transform="matrix(0.528394,-0.141583,0.141583,0.528394,-102.744,-25.9687)">
        <g transform="matrix(297.358,0,0,297.358,120,368)">
            <path d="M0.249,-0.609C0.244,-0.61 0.239,-0.609 0.236,-0.606C0.233,-0.603 0.229,-0.601 0.225,-0.6L0.183,-0.584C0.175,-0.582 0.167,-0.581 0.159,-0.581C0.138,-0.58 0.125,-0.589 0.12,-0.608C0.115,-0.623 0.115,-0.636 0.12,-0.647C0.124,-0.659 0.129,-0.67 0.136,-0.681C0.142,-0.692 0.149,-0.702 0.157,-0.713C0.162,-0.718 0.167,-0.722 0.172,-0.725C0.191,-0.733 0.211,-0.737 0.232,-0.738C0.232,-0.738 0.233,-0.737 0.236,-0.736L0.227,-0.717C0.22,-0.704 0.214,-0.692 0.206,-0.679C0.2,-0.666 0.193,-0.653 0.186,-0.64C0.184,-0.637 0.183,-0.633 0.182,-0.629C0.181,-0.626 0.18,-0.622 0.179,-0.618C0.178,-0.615 0.179,-0.612 0.182,-0.61C0.185,-0.608 0.188,-0.608 0.191,-0.609C0.194,-0.61 0.198,-0.612 0.201,-0.613C0.203,-0.614 0.206,-0.615 0.209,-0.616C0.22,-0.621 0.231,-0.627 0.242,-0.634C0.253,-0.641 0.263,-0.648 0.274,-0.655L0.308,-0.68C0.329,-0.693 0.34,-0.689 0.341,-0.667C0.341,-0.662 0.341,-0.656 0.341,-0.651C0.34,-0.645 0.34,-0.639 0.339,-0.634L0.318,-0.443C0.316,-0.426 0.314,-0.41 0.312,-0.394C0.309,-0.377 0.307,-0.361 0.306,-0.344L0.292,-0.166C0.29,-0.145 0.289,-0.124 0.289,-0.103C0.289,-0.083 0.29,-0.063 0.291,-0.042C0.292,-0.034 0.292,-0.026 0.293,-0.018C0.294,-0.01 0.295,-0.002 0.296,0.006L0.301,0.015C0.317,0 0.334,-0.024 0.35,-0.059C0.368,-0.094 0.384,-0.134 0.4,-0.179C0.416,-0.224 0.431,-0.271 0.445,-0.32C0.459,-0.369 0.471,-0.416 0.482,-0.461C0.493,-0.505 0.501,-0.544 0.508,-0.577C0.516,-0.61 0.52,-0.633 0.521,-0.646C0.522,-0.651 0.524,-0.657 0.525,-0.663C0.526,-0.668 0.527,-0.674 0.528,-0.68C0.531,-0.69 0.537,-0.695 0.547,-0.694C0.566,-0.692 0.583,-0.684 0.596,-0.67C0.602,-0.664 0.604,-0.657 0.603,-0.649C0.602,-0.643 0.601,-0.637 0.6,-0.631C0.599,-0.625 0.598,-0.619 0.597,-0.613C0.592,-0.592 0.586,-0.572 0.581,-0.552C0.575,-0.532 0.569,-0.512 0.563,-0.492C0.557,-0.471 0.551,-0.451 0.545,-0.431C0.539,-0.411 0.532,-0.391 0.525,-0.371C0.516,-0.346 0.506,-0.32 0.497,-0.295C0.487,-0.269 0.477,-0.243 0.468,-0.218L0.445,-0.163C0.434,-0.136 0.422,-0.11 0.409,-0.085C0.396,-0.059 0.382,-0.034 0.366,-0.009C0.36,0 0.353,0.009 0.346,0.018C0.339,0.027 0.331,0.037 0.324,0.046C0.321,0.049 0.319,0.052 0.316,0.055C0.313,0.058 0.309,0.06 0.306,0.063C0.291,0.076 0.278,0.076 0.269,0.065C0.258,0.053 0.25,0.041 0.243,0.029C0.226,-0.009 0.217,-0.049 0.216,-0.092C0.214,-0.131 0.213,-0.17 0.214,-0.209C0.215,-0.248 0.216,-0.287 0.219,-0.326C0.221,-0.367 0.225,-0.408 0.23,-0.45C0.234,-0.491 0.24,-0.532 0.246,-0.574C0.247,-0.58 0.248,-0.586 0.248,-0.592C0.248,-0.597 0.248,-0.603 0.249,-0.609Z" style="fill:white;fill-rule:nonzero;"/>
        </g>
        <g transform="matrix(297.358,0,0,297.358,279.086,368)">
            <path d="M0.056,-0.027C0.067,-0.032 0.081,-0.044 0.096,-0.063C0.111,-0.081 0.127,-0.101 0.141,-0.124C0.157,-0.146 0.171,-0.168 0.184,-0.189C0.197,-0.21 0.206,-0.227 0.212,-0.239C0.218,-0.258 0.224,-0.265 0.229,-0.262C0.234,-0.259 0.235,-0.255 0.234,-0.251C0.233,-0.247 0.231,-0.243 0.23,-0.238C0.227,-0.225 0.22,-0.207 0.209,-0.187C0.198,-0.166 0.186,-0.144 0.172,-0.121C0.158,-0.098 0.143,-0.077 0.127,-0.057C0.11,-0.036 0.095,-0.02 0.081,-0.007C0.075,0.001 0.067,0.007 0.058,0.011C0.048,0.015 0.038,0.017 0.029,0.017C0.019,0.018 0.01,0.016 0.002,0.011C-0.006,0.007 -0.011,0 -0.014,-0.009C-0.019,-0.033 -0.022,-0.06 -0.021,-0.089C-0.021,-0.118 -0.018,-0.148 -0.013,-0.178C-0.008,-0.207 -0.002,-0.236 0.007,-0.264C0.015,-0.292 0.025,-0.317 0.036,-0.338C0.038,-0.343 0.04,-0.347 0.042,-0.352C0.044,-0.356 0.046,-0.36 0.049,-0.365C0.052,-0.37 0.055,-0.374 0.059,-0.378C0.069,-0.387 0.079,-0.391 0.09,-0.39C0.101,-0.389 0.107,-0.381 0.108,-0.368C0.11,-0.359 0.11,-0.349 0.108,-0.34C0.105,-0.325 0.103,-0.311 0.1,-0.297C0.097,-0.282 0.094,-0.268 0.091,-0.253L0.063,-0.117C0.057,-0.09 0.055,-0.06 0.056,-0.027ZM0.148,-0.527C0.144,-0.506 0.137,-0.488 0.127,-0.474C0.118,-0.462 0.108,-0.456 0.097,-0.455C0.086,-0.454 0.078,-0.46 0.072,-0.471C0.069,-0.477 0.067,-0.484 0.067,-0.493C0.066,-0.501 0.067,-0.509 0.07,-0.518C0.072,-0.527 0.075,-0.535 0.08,-0.543C0.085,-0.551 0.09,-0.558 0.096,-0.563C0.109,-0.575 0.121,-0.579 0.132,-0.574C0.142,-0.569 0.147,-0.561 0.148,-0.55L0.148,-0.527Z" style="fill:white;fill-rule:nonzero;"/>
        </g>
        <g transform="matrix(297.358,0,0,297.358,324.88,368)">
            <path d="M0.193,-0.417C0.198,-0.445 0.202,-0.467 0.205,-0.483C0.208,-0.498 0.211,-0.512 0.214,-0.525C0.217,-0.537 0.219,-0.55 0.222,-0.563C0.224,-0.576 0.227,-0.594 0.23,-0.616C0.231,-0.622 0.232,-0.628 0.233,-0.633C0.234,-0.639 0.235,-0.645 0.237,-0.651C0.241,-0.662 0.248,-0.67 0.257,-0.675C0.266,-0.679 0.276,-0.679 0.286,-0.675C0.291,-0.673 0.295,-0.67 0.297,-0.667C0.298,-0.663 0.299,-0.659 0.3,-0.654C0.301,-0.646 0.301,-0.638 0.301,-0.629C0.301,-0.621 0.3,-0.613 0.299,-0.605C0.292,-0.553 0.285,-0.505 0.277,-0.461C0.269,-0.417 0.261,-0.374 0.253,-0.333C0.245,-0.292 0.237,-0.25 0.23,-0.209C0.223,-0.167 0.216,-0.122 0.211,-0.075C0.214,-0.074 0.217,-0.074 0.218,-0.076C0.219,-0.078 0.221,-0.08 0.222,-0.082C0.23,-0.091 0.241,-0.104 0.255,-0.12C0.268,-0.136 0.282,-0.153 0.297,-0.17C0.312,-0.187 0.325,-0.203 0.337,-0.219C0.349,-0.234 0.357,-0.246 0.361,-0.254C0.362,-0.256 0.364,-0.258 0.367,-0.261C0.37,-0.264 0.372,-0.266 0.374,-0.268C0.376,-0.269 0.378,-0.27 0.379,-0.269C0.38,-0.268 0.38,-0.265 0.379,-0.26L0.379,-0.25C0.379,-0.247 0.378,-0.243 0.377,-0.24C0.37,-0.224 0.358,-0.204 0.343,-0.182C0.328,-0.159 0.311,-0.135 0.292,-0.112C0.273,-0.089 0.255,-0.067 0.236,-0.046C0.218,-0.025 0.203,-0.009 0.19,0.002C0.181,0.006 0.172,0.007 0.165,0.005C0.158,0.003 0.152,-0.002 0.149,-0.01C0.148,-0.014 0.146,-0.018 0.145,-0.023C0.144,-0.027 0.142,-0.031 0.141,-0.036C0.135,-0.035 0.131,-0.032 0.129,-0.028C0.127,-0.024 0.124,-0.02 0.121,-0.017C0.103,0.004 0.082,0.014 0.058,0.012C0.043,0.011 0.029,0.007 0.018,0.001C0.006,-0.005 -0.003,-0.015 -0.01,-0.028C-0.017,-0.043 -0.022,-0.059 -0.025,-0.077C-0.029,-0.1 -0.03,-0.122 -0.029,-0.145C-0.028,-0.168 -0.025,-0.191 -0.02,-0.214C-0.015,-0.233 -0.01,-0.252 -0.004,-0.271C0.002,-0.289 0.01,-0.307 0.02,-0.325C0.037,-0.356 0.061,-0.383 0.092,-0.404C0.108,-0.415 0.124,-0.423 0.139,-0.426C0.154,-0.429 0.17,-0.426 0.185,-0.417C0.186,-0.416 0.188,-0.416 0.189,-0.417C0.19,-0.417 0.191,-0.417 0.193,-0.417ZM0.169,-0.246L0.167,-0.246C0.17,-0.264 0.172,-0.282 0.174,-0.3C0.177,-0.318 0.18,-0.336 0.183,-0.353C0.185,-0.362 0.185,-0.369 0.182,-0.375C0.179,-0.38 0.175,-0.385 0.17,-0.39C0.164,-0.396 0.156,-0.396 0.146,-0.391C0.129,-0.38 0.117,-0.367 0.11,-0.352C0.105,-0.342 0.1,-0.332 0.095,-0.322C0.09,-0.311 0.086,-0.301 0.083,-0.29C0.072,-0.256 0.065,-0.222 0.06,-0.189C0.055,-0.156 0.053,-0.122 0.053,-0.088C0.053,-0.083 0.053,-0.078 0.054,-0.073C0.055,-0.068 0.056,-0.063 0.058,-0.058C0.061,-0.046 0.068,-0.04 0.077,-0.039C0.086,-0.038 0.095,-0.042 0.105,-0.052C0.112,-0.06 0.119,-0.068 0.125,-0.077C0.131,-0.086 0.136,-0.095 0.139,-0.105C0.142,-0.114 0.144,-0.123 0.147,-0.132C0.149,-0.141 0.151,-0.15 0.153,-0.159C0.156,-0.174 0.159,-0.188 0.162,-0.203C0.164,-0.217 0.166,-0.231 0.169,-0.246Z" style="fill:white;fill-rule:nonzero;"/>
        </g>
        <g transform="matrix(297.358,0,0,297.358,414.979,368)">
            <path d="M0.085,-0.148C0.079,-0.124 0.079,-0.101 0.086,-0.078C0.087,-0.071 0.09,-0.064 0.095,-0.058C0.104,-0.05 0.114,-0.048 0.127,-0.052C0.14,-0.056 0.153,-0.064 0.167,-0.075C0.18,-0.086 0.194,-0.099 0.209,-0.115C0.224,-0.131 0.237,-0.148 0.251,-0.165C0.264,-0.182 0.275,-0.198 0.286,-0.214C0.297,-0.229 0.305,-0.242 0.312,-0.252C0.313,-0.255 0.315,-0.258 0.317,-0.261C0.319,-0.264 0.322,-0.265 0.326,-0.266C0.329,-0.265 0.331,-0.263 0.331,-0.26C0.33,-0.257 0.33,-0.254 0.329,-0.251C0.32,-0.233 0.308,-0.212 0.294,-0.188C0.279,-0.163 0.263,-0.139 0.246,-0.115C0.228,-0.09 0.209,-0.068 0.189,-0.048C0.169,-0.027 0.149,-0.012 0.129,-0.001C0.108,0.01 0.088,0.013 0.069,0.01C0.05,0.007 0.032,-0.006 0.015,-0.029C0.008,-0.043 0.002,-0.058 -0.002,-0.075C-0.006,-0.091 -0.007,-0.108 -0.006,-0.125C-0.005,-0.165 -0,-0.206 0.009,-0.247C0.015,-0.271 0.023,-0.294 0.033,-0.317C0.043,-0.339 0.056,-0.361 0.073,-0.382C0.08,-0.39 0.086,-0.397 0.092,-0.402C0.098,-0.406 0.105,-0.413 0.113,-0.42C0.122,-0.427 0.131,-0.433 0.142,-0.436C0.156,-0.441 0.17,-0.442 0.185,-0.439C0.199,-0.436 0.209,-0.428 0.214,-0.417C0.227,-0.386 0.23,-0.352 0.222,-0.317C0.213,-0.281 0.199,-0.247 0.178,-0.215C0.167,-0.2 0.153,-0.186 0.136,-0.173C0.118,-0.16 0.102,-0.151 0.085,-0.148ZM0.086,-0.185C0.099,-0.192 0.111,-0.203 0.121,-0.219C0.13,-0.235 0.138,-0.253 0.145,-0.272C0.152,-0.291 0.157,-0.311 0.16,-0.33C0.163,-0.349 0.165,-0.366 0.166,-0.379C0.167,-0.382 0.168,-0.386 0.168,-0.39C0.167,-0.393 0.165,-0.397 0.161,-0.4C0.155,-0.394 0.15,-0.388 0.145,-0.381C0.14,-0.374 0.137,-0.366 0.134,-0.359C0.121,-0.334 0.111,-0.306 0.103,-0.277C0.095,-0.248 0.088,-0.219 0.083,-0.192C0.083,-0.191 0.083,-0.191 0.084,-0.19C0.085,-0.189 0.085,-0.187 0.086,-0.185Z" style="fill:white;fill-rule:nonzero;"/>
        </g>
        <g transform="matrix(297.358,0,0,297.358,493.184,368)">
            <path d="M0.366,-0.277C0.371,-0.274 0.373,-0.272 0.373,-0.271C0.375,-0.268 0.375,-0.265 0.374,-0.262C0.371,-0.247 0.365,-0.234 0.354,-0.221C0.343,-0.208 0.33,-0.197 0.316,-0.186C0.301,-0.174 0.286,-0.165 0.272,-0.156C0.257,-0.147 0.244,-0.139 0.233,-0.133C0.228,-0.128 0.224,-0.123 0.221,-0.118C0.218,-0.113 0.215,-0.108 0.212,-0.103C0.209,-0.096 0.205,-0.09 0.203,-0.085C0.2,-0.079 0.197,-0.073 0.194,-0.066C0.188,-0.053 0.18,-0.04 0.171,-0.029C0.162,-0.018 0.152,-0.007 0.141,0.004C0.128,0.015 0.115,0.023 0.1,0.026C0.085,0.03 0.071,0.029 0.057,0.024C0.04,0.018 0.027,0.01 0.017,-0.001C0.007,-0.012 0,-0.026 -0.003,-0.043C-0.008,-0.064 -0.01,-0.084 -0.009,-0.105C-0.008,-0.126 -0.006,-0.147 -0.001,-0.168C0.001,-0.179 0.004,-0.19 0.007,-0.201C0.01,-0.212 0.014,-0.223 0.018,-0.234C0.023,-0.249 0.03,-0.264 0.039,-0.278C0.047,-0.291 0.057,-0.304 0.068,-0.316C0.075,-0.325 0.082,-0.333 0.089,-0.342C0.096,-0.351 0.101,-0.36 0.106,-0.37C0.11,-0.381 0.116,-0.39 0.124,-0.399C0.131,-0.408 0.139,-0.414 0.148,-0.419C0.161,-0.428 0.173,-0.429 0.185,-0.424C0.204,-0.417 0.217,-0.406 0.225,-0.389C0.242,-0.354 0.249,-0.318 0.246,-0.281C0.245,-0.264 0.243,-0.246 0.242,-0.228C0.24,-0.21 0.238,-0.192 0.236,-0.174C0.261,-0.185 0.286,-0.2 0.31,-0.219C0.334,-0.238 0.353,-0.258 0.366,-0.277ZM0.163,-0.138C0.166,-0.143 0.167,-0.146 0.167,-0.147C0.181,-0.192 0.189,-0.237 0.191,-0.28C0.191,-0.292 0.191,-0.304 0.19,-0.316C0.189,-0.328 0.188,-0.34 0.187,-0.351C0.186,-0.358 0.185,-0.364 0.183,-0.371C0.18,-0.377 0.177,-0.383 0.174,-0.389C0.173,-0.392 0.17,-0.394 0.166,-0.394C0.162,-0.393 0.159,-0.391 0.157,-0.388C0.154,-0.383 0.151,-0.379 0.148,-0.374C0.145,-0.369 0.143,-0.364 0.142,-0.359C0.133,-0.327 0.128,-0.296 0.127,-0.265C0.126,-0.234 0.129,-0.204 0.137,-0.175C0.139,-0.169 0.141,-0.164 0.144,-0.159C0.147,-0.154 0.15,-0.148 0.153,-0.143C0.154,-0.142 0.155,-0.141 0.157,-0.141C0.159,-0.14 0.161,-0.139 0.163,-0.138ZM0.08,-0.216C0.073,-0.2 0.068,-0.183 0.065,-0.166C0.062,-0.148 0.06,-0.131 0.061,-0.114C0.061,-0.097 0.063,-0.08 0.068,-0.065C0.072,-0.049 0.078,-0.035 0.087,-0.023C0.093,-0.014 0.101,-0.013 0.112,-0.022C0.122,-0.031 0.13,-0.042 0.136,-0.057C0.141,-0.071 0.145,-0.084 0.147,-0.096C0.129,-0.103 0.116,-0.114 0.107,-0.128C0.098,-0.141 0.091,-0.157 0.088,-0.175L0.08,-0.216Z" style="fill:white;fill-rule:nonzero;"/>
        </g>
    </g>
</svg>
